<svg width="408" height="390" viewBox="0 0 408 390" fill="none" xmlns="http://www.w3.org/2000/svg">
<g id="aboutme_svg" clip-path="url(#clip0_109_370)">
<g id="Group">
<path id="Vector" d="M290.658 181.138C291.235 181.138 291.703 180.67 291.703 180.092C291.703 179.514 291.235 179.046 290.658 179.046C290.081 179.046 289.613 179.514 289.613 180.092C289.613 180.67 290.081 181.138 290.658 181.138Z" fill="url(#paint0_radial_109_370)"/>
<path id="Vector_2" d="M283.081 155.772L288.045 154.856" stroke="#14171C" stroke-width="5" stroke-miterlimit="10"/>
<path id="Vector_3" d="M161.186 386.678C156.482 388.378 144.332 393.085 135.971 386.678C132.313 383.802 130.484 379.748 129.569 377.264C127.871 379.225 124.343 382.756 119.117 383.671C110.886 385.24 102.002 379.748 97.0376 369.811C86.8471 379.879 80.8373 380.402 77.3098 379.095C69.7322 376.218 71.6919 363.928 61.1094 355.429C52.7479 348.63 46.4768 352.421 42.8187 346.145C38.246 338.17 46.9994 330.063 42.8187 320.78C38.5073 311.104 26.6183 315.288 21.2618 304.436C17.7343 297.375 21.7844 293.453 17.6036 283.516C14.2068 275.54 10.8099 276.324 8.45826 270.048C4.40817 259.196 13.6842 253.835 12.247 240.498C10.5486 224.939 -1.86294 219.578 0.488727 208.987C1.79521 202.973 7.02113 199.312 10.8099 197.351C2.0565 169.762 3.75493 159.825 7.28242 156.164C9.76474 153.549 12.247 150.934 17.2117 145.573C20.6085 142.043 21.1311 141.258 21.5231 139.951C23.0908 133.936 16.0358 129.36 14.7294 123.084C13.5535 117.723 16.1665 108.963 34.4572 94.3186C34.3266 73.5292 38.6379 66.9917 42.5574 65.0304C48.3059 62.0231 54.0544 67.2532 58.8884 63.0691C63.9837 58.6236 59.6723 50.3863 64.6369 43.9795C70.1241 36.9189 79.7921 44.764 87.1084 37.7034C91.4197 33.5194 88.6761 30.5121 95.4698 19.9212C95.4698 19.9212 101.741 10.2457 107.751 9.98416C108.404 9.98416 108.927 9.98416 108.927 9.98416C110.625 10.2457 111.931 11.5532 119.117 13.9067C125.388 15.9987 128.393 17.0447 130.614 16.391C135.709 14.8219 135.317 9.19965 141.327 4.62336C147.076 0.0470683 153.869 0.308571 155.045 0.439322C165.497 0.831575 168.371 9.5919 176.472 8.02289C180.522 7.23838 180.13 5.01561 187.185 2.13909C191.104 0.570073 196.069 -1.52195 200.903 -0.345185C209.264 1.61608 208.35 11.0302 216.189 14.8219C227.032 20.1827 236.178 5.66937 247.936 11.1609C255.122 14.4297 254.599 21.2288 261.262 22.4055C269.754 23.9745 273.543 13.7759 280.337 15.6065C288.437 17.8292 287.13 33.1271 296.406 36.6574C303.853 39.5339 308.165 31.2966 314.697 34.3039C324.104 38.6187 320.576 58.1006 330.636 62.6769C336.515 65.4227 340.304 59.8004 345.269 63.0691C351.932 67.6454 346.706 79.2823 353.761 87.2581C359.901 94.3186 367.087 88.8271 373.489 96.0184C379.76 103.079 374.403 110.27 380.544 120.992C386.684 131.844 394.523 129.229 398.051 138.774C401.578 148.057 394.523 152.111 396.483 164.924C398.704 179.176 408.503 180.876 407.98 191.075C407.327 202.319 395.307 202.973 393.478 215.525C391.649 227.816 402.231 233.307 398.965 244.682C396.744 252.528 391.257 252.005 389.559 260.242C387.599 269.917 394.523 274.494 391.91 281.293C389.297 288.353 381.458 285.346 375.84 293.06C369.047 302.344 376.494 312.019 370.223 320.78C364.082 329.279 354.676 323.133 347.621 331.894C340.304 341.046 346.183 353.206 339.259 358.044C333.902 361.836 329.068 355.69 322.405 359.743C315.612 363.797 317.833 371.773 311.431 375.434C305.029 378.964 300.587 372.296 292.618 375.826C286.608 378.572 286.347 383.671 281.905 384.325C276.156 385.109 271.975 377.264 268.186 373.342C248.851 354.252 186.27 377.395 161.186 386.678Z" fill="#3E3C6E"/>
<path id="Vector_4" d="M283.211 164.402C272.236 152.111 260.87 167.409 260.87 167.409C260.87 167.409 260.87 167.409 276.417 179.046C291.964 190.683 294.316 176.692 294.316 176.692C294.316 176.692 303.984 167.017 295.361 161.133C286.738 155.249 283.211 164.402 283.211 164.402Z" fill="white"/>
<path id="Vector_5" d="M115.459 187.806C126.434 175.515 137.8 190.813 137.8 190.813C137.8 190.813 137.8 190.813 122.253 202.45C106.706 214.087 104.354 200.097 104.354 200.097C104.354 200.097 94.6862 190.421 103.309 184.537C112.062 178.653 115.459 187.806 115.459 187.806Z" fill="white"/>
<path id="Vector_6" d="M283.472 118.376C284.648 127.006 284.387 136.551 287.784 156.556C289.613 167.408 290.005 166.231 290.397 170.938C292.487 191.597 285.171 208.464 280.99 217.747C277.855 224.808 277.724 223.37 261.262 249.128C243.363 277.108 240.751 282.992 232.128 286.784C223.374 290.445 215.405 288.876 202.209 286.13C193.325 284.3 170.462 279.462 150.342 263.379C109.188 230.43 109.711 174.992 109.841 171.984C111.409 111.185 163.276 56.7926 211.485 53.9161C216.45 53.6546 236.57 52.4778 254.077 64.8992C278.116 82.1583 282.95 114.846 283.472 118.376Z" fill="white"/>
<path id="Vector_7" d="M78.8774 209.249C78.8774 209.249 83.0582 176.169 105.922 172.246C128.785 168.324 97.4295 141.127 128.654 141.912C159.879 142.696 115.981 130.537 154 116.938C192.019 103.34 218.932 116.154 205.475 97.9795C192.019 79.8051 273.804 100.987 265.443 136.551C257.081 172.115 377.669 60.1924 288.176 42.018C198.682 23.8436 305.944 -10.9363 193.717 23.8436C81.4904 58.6234 78.8774 209.249 78.8774 209.249Z" fill="#3E3C6E"/>
<path id="Vector_8" d="M176.733 145.442C170.07 145.442 163.407 145.442 156.744 145.442C154.262 145.573 151.257 145.834 147.991 146.619C143.287 147.665 139.498 149.365 136.755 150.934C132.574 154.202 128.524 157.471 124.343 160.74C127.74 154.987 131.006 149.365 134.403 143.612C135.448 142.435 137.016 140.866 139.368 139.689C140.674 139.035 142.111 138.381 147.076 137.728C153.347 136.812 158.312 136.682 160.402 136.812C162.754 136.943 165.105 136.943 167.457 137.074" fill="#3E3C6E"/>
<path id="Vector_9" d="M218.802 142.043C224.812 139.166 230.821 136.421 236.831 133.544C239.052 132.629 241.926 131.583 245.193 130.929C249.896 129.883 254.077 129.883 257.212 130.014C262.308 131.191 267.403 132.367 272.629 133.544C267.142 129.752 261.654 126.091 256.167 122.3C254.73 121.646 252.64 120.992 250.027 120.861C248.59 120.861 247.022 120.861 242.188 122.43C236.178 124.261 231.605 126.222 229.646 127.268C227.555 128.314 225.465 129.36 223.244 130.537" fill="#3E3C6E"/>
<path id="Vector_10" d="M109.58 204.672C110.373 204.672 111.017 204.028 111.017 203.234C111.017 202.44 110.373 201.796 109.58 201.796C108.786 201.796 108.143 202.44 108.143 203.234C108.143 204.028 108.786 204.672 109.58 204.672Z" fill="#3E3C6E"/>
<path id="Vector_11" d="M192.542 162.31C193.848 161.394 195.808 159.302 201.556 159.172C207.697 159.041 207.697 159.433 212.139 161.917" stroke="#3E3C6E" stroke-width="2" stroke-miterlimit="10"/>
<g id="Group_2">
<g id="Group_3">
<g id="Group_4">
<path id="Vector_12" d="M172.683 154.202C160.141 152.633 137.538 161.263 137.538 161.263L127.478 165.97L121.861 167.801C121.991 170.546 121.991 173.423 121.73 176.299C123.036 177.215 124.212 178.914 124.735 182.183C126.172 191.728 139.759 213.825 160.271 211.079C180.783 208.333 198.812 201.142 192.541 162.57C192.672 162.701 185.225 155.641 172.683 154.202Z" stroke="#3E3C6E" stroke-width="2" stroke-miterlimit="10"/>
</g>
</g>
</g>
<g id="Group_5">
<g id="Group_6">
<g id="Group_7">
<path id="Vector_13" d="M283.472 157.21C283.342 156.949 283.211 156.818 283.08 156.556C282.297 154.726 281.905 152.895 282.035 151.065L275.503 150.411L264.398 147.927C264.398 147.927 239.967 144.527 228.339 148.711C216.711 152.895 211.485 161.263 211.485 161.263C216.45 199.966 235.917 202.973 256.559 201.143C277.201 199.312 283.995 174.862 282.689 165.317C282.297 162.571 282.689 160.871 283.472 159.564C283.472 159.041 283.342 158.125 283.472 157.21Z" stroke="#3E3C6E" stroke-width="2" stroke-miterlimit="10"/>
</g>
</g>
</g>
<path id="Vector_14" d="M108.927 171.593L121.861 174.862" stroke="#3E3C6E" stroke-width="2" stroke-miterlimit="10"/>
<path id="Vector_15" d="M182.351 186.89C182.351 186.89 163.276 167.539 143.026 188.067C143.026 188.067 140.543 190.29 137.8 187.282" stroke="#3E3C6E" stroke-miterlimit="10"/>
<path id="Vector_16" d="M232.258 182.575C232.258 182.575 247.413 160.086 271.061 176.43C271.061 176.43 273.935 178.13 276.025 174.6" stroke="#3E3C6E" stroke-miterlimit="10"/>
<path id="Vector_17" d="M291.442 178.522C292.236 178.522 292.879 177.878 292.879 177.084C292.879 176.289 292.236 175.646 291.442 175.646C290.648 175.646 290.005 176.289 290.005 177.084C290.005 177.878 290.648 178.522 291.442 178.522Z" fill="#3E3C6E"/>
<path id="Vector_18" d="M283.472 153.68L296.406 150.28" stroke="#3E3C6E" stroke-width="2" stroke-miterlimit="10"/>
</g>
</g>
<defs>
<radialGradient id="paint0_radial_109_370" cx="0" cy="0" r="1" gradientUnits="userSpaceOnUse" gradientTransform="translate(290.696 180.119) scale(1.1086 1.10949)">
<stop offset="0.0642458" stop-color="#FADABB"/>
<stop offset="0.2598" stop-color="#FFEF26"/>
<stop offset="0.3185" stop-color="#FFF13D"/>
<stop offset="0.5038" stop-color="#FFF681"/>
<stop offset="0.6712" stop-color="#FFFAB7"/>
<stop offset="0.8149" stop-color="#FFFDDE"/>
<stop offset="0.9292" stop-color="#FFFEF6"/>
<stop offset="1" stop-color="white"/>
</radialGradient>
<clipPath id="clip0_109_370">
<rect width="408" height="390" fill="white"/>
</clipPath>
</defs>
</svg>
