<svg width="408" height="391" viewBox="0 0 408 391" fill="none" xmlns="http://www.w3.org/2000/svg">
<path id="bg-about" d="M160.992 387.368C156.289 389.067 144.139 393.775 135.777 387.368C132.119 384.491 130.29 380.438 129.376 377.954C127.677 379.915 124.15 383.445 118.924 384.36C110.693 385.929 101.809 380.438 96.8442 370.501C86.6537 380.569 80.6439 381.092 77.1164 379.784C69.5388 376.908 71.4985 364.617 60.916 356.118C52.5546 349.319 46.2835 353.111 42.6253 346.835C38.0526 338.859 46.8061 330.752 42.6253 321.469C38.3139 311.794 26.425 315.978 21.0684 305.125C17.5409 298.065 21.591 294.142 17.4103 284.205C14.0134 276.229 10.6166 277.014 8.2649 270.738C4.21481 259.885 13.4908 254.525 12.0537 241.188C10.3553 225.629 -2.0563 220.268 0.295367 209.677C1.60185 203.662 6.82777 200.001 10.6166 198.04C1.86314 170.452 3.56157 160.514 7.08906 156.853C9.57138 154.238 12.0537 151.623 17.0183 146.263C20.4152 142.732 20.9378 141.948 21.3297 140.64C22.8975 134.626 15.8425 130.049 14.536 123.773C13.3602 118.413 15.9731 109.652 34.2639 95.0081C34.1332 74.2187 38.4446 67.6811 42.364 65.7198C48.1125 62.7126 53.8611 67.9426 58.695 63.7586C63.7903 59.313 59.4789 51.0757 64.4435 44.6689C69.9308 37.6084 79.5987 45.4534 86.915 38.3929C91.2264 34.2088 88.4828 31.2015 95.2765 20.6107C95.2765 20.6107 101.548 10.9351 107.557 10.6736C108.211 10.6736 108.733 10.6736 108.733 10.6736C110.432 10.9351 111.738 12.2426 118.924 14.5961C125.195 16.6882 128.2 17.7342 130.421 17.0804C135.516 15.5114 135.124 9.8891 141.134 5.31281C146.882 0.736521 153.676 0.998024 154.852 1.12878C165.304 1.52103 168.178 10.2814 176.278 8.71234C180.328 7.92784 179.936 5.70507 186.991 2.82854C190.911 1.25953 195.875 -0.832492 200.709 0.344268C209.071 2.30554 208.156 11.7196 215.995 15.5114C226.839 20.8722 235.984 6.35882 247.743 11.8504C254.928 15.1191 254.406 21.9182 261.069 23.095C269.561 24.664 273.35 14.4654 280.143 16.2959C288.244 18.5187 286.937 33.8166 296.213 37.3468C303.66 40.2234 307.971 31.986 314.504 34.9933C323.91 39.3081 320.383 58.79 330.443 63.3663C336.322 66.1121 340.111 60.4898 345.076 63.7586C351.739 68.3349 346.513 79.9717 353.568 87.9475C359.708 95.0081 366.894 89.5166 373.295 96.7079C379.567 103.768 374.21 110.96 380.35 121.681C386.491 132.534 394.33 129.919 397.857 139.463C401.385 148.747 394.33 152.8 396.29 165.614C398.511 179.866 408.309 181.565 407.787 191.764C407.133 203.009 395.114 203.662 393.285 216.214C391.456 228.505 402.038 233.997 398.772 245.372C396.551 253.217 391.064 252.694 389.365 260.931C387.405 270.607 394.33 275.183 391.717 281.982C389.104 289.043 381.265 286.036 375.647 293.75C368.853 303.033 376.3 312.709 370.029 321.469C363.889 329.968 354.482 323.823 347.427 332.583C340.111 341.736 345.99 353.895 339.066 358.733C333.709 362.525 328.875 356.38 322.212 360.433C315.418 364.486 317.639 372.462 311.238 376.123C304.836 379.653 300.394 372.985 292.424 376.515C286.415 379.261 286.153 384.36 281.711 385.014C275.963 385.799 271.782 377.954 267.993 374.031C248.657 354.941 186.077 378.084 160.992 387.368Z" fill="#3E3C6E"/>
</svg>
