<svg width="1512" height="338" viewBox="0 0 1512 338" fill="none" xmlns="http://www.w3.org/2000/svg">
<path fill-rule="evenodd" clip-rule="evenodd" d="M0 0L19 6.61125C39 13.2225 78 25.6186 116 57.022C155 87.599 194 138.01 233 175.198C271 213.213 310 238.005 349 213.213C388 187.594 426 113.218 465 119.002C504 125.614 543 213.213 582 206.601C620 200.817 659 99.9951 698 62.8068C737 25.6186 775 50.4108 814 81.8142C853 113.218 892 150.406 930 162.802C969 175.198 1008 162.802 1047 175.198C1086 187.594 1124 225.609 1163 231.394C1202 238.005 1241 213.213 1279 194.205C1318 175.198 1357 162.802 1396 138.01C1434 113.218 1473 75.2029 1493 57.022L1512 38.0147V338H1493C1473 338 1434 338 1396 338C1357 338 1318 338 1279 338C1241 338 1202 338 1163 338C1124 338 1086 338 1047 338C1008 338 969 338 930 338C892 338 853 338 814 338C775 338 737 338 698 338C659 338 620 338 582 338C543 338 504 338 465 338C426 338 388 338 349 338C310 338 271 338 233 338C194 338 155 338 116 338C78 338 39 338 19 338H0V0Z" fill="#8873EF" fill-opacity="0.14"/>
</svg>
